# AST/ASF file generated using VICON BodyLanguage
# -----------------------------------------------
:version 1.10
:name VICON
:units
  mass 1.0
  length 0.45
  angle deg
:documentation
   .ast/.asf automatically generated from VICON data using
   VICON BodyBuilder and BodyLanguage model FoxedUp or BRILLIANT.MOD
:root
   order TX TY TZ RX RY RZ
   axis XYZ
   position 0 0 0  
   orientation 0 0 0 
:bonedata
  begin
     id 1 
     name lhipjoint
     direction 0.64773 -0.699417 0.302095 
     length 2.48597 
     axis 0 0 0  XYZ
  end
  begin
     id 2 
     name lfemur
     direction 0.34202 -0.939693 0  
     length 6.71947  
     axis 0 0 20  XYZ
    dof rx ry rz
    limits (-160.0 20.0)
           (-70.0 70.0)
           (-60.0 70.0)
  end
  begin
     id 3 
     name ltibia
     direction 0.34202 -0.939693 0   
     length 8.08777   
     axis 0 0 20   XYZ
    dof rx
    limits (-10.0 170.0)
  end
  begin
     id 4 
     name lfoot
     direction 0.0808503 -0.222134 0.971658   
     length 2.08264   
     axis -90 7.62852e-016 20   XYZ
    dof rx rz
    limits (-45.0 90.0)
           (-70.0 20.0)
  end
  begin
     id 5 
     name ltoes
     direction 1.53502e-011 -4.22007e-011 1   
     length 1.04662   
     axis -90 7.62852e-016 20   XYZ
    dof rx
    limits (-90.0 20.0)
  end
  begin
     id 6 
     name rhipjoint
     direction -0.610924 -0.726792 0.313919   
     length 2.39233  
     axis 0 0 0  XYZ 
  end
  begin
     id 7 
     name rfemur
     direction -0.34202 -0.939693 0   
     length 6.96955   
     axis 0 0 -20   XYZ
    dof rx ry rz
    limits (-160.0 20.0)
           (-70.0 70.0)
           (-70.0 60.0)
  end
  begin
     id 8 
     name rtibia
     direction -0.34202 -0.939693 0   
     length 8.19584   
     axis 0 0 -20   XYZ
    dof rx
    limits (-10.0 170.0)
 end
 begin
     id 9 
     name rfoot
     direction -0.077777 -0.213691 0.9738   
     length 2.07539  
     axis -90 -7.62852e-016 -20   XYZ
    dof rx rz
    limits (-45.0 90.0)
           (-20.0 70.0)
  end
  begin
     id 10 
     name rtoes
     direction -1.53558e-011 -4.22006e-011 1   
     length 1.04381   
     axis -90 -7.62852e-016 -20   XYZ
    dof rx
    limits (-90.0 20.0)
  end
  begin
     id 11 
     name lowerback
     direction -0.00971646 0.996074 0.0879841   
     length 1.67643   
     axis 0 0 0   XYZ
    dof rx ry rz
    limits (-20.0 45.0)
           (-30.0 30.0)
           (-30.0 30.0)
  end
  begin
     id 12 
     name upperback
     direction 0.0127391 0.991676 0.128127   
     length 1.63741   
     axis 0 0 0   XYZ
    dof rx ry rz
    limits (-20.0 45.0)
           (-30.0 30.0)
           (-30.0 30.0)
  end
  begin
     id 13 
     name thorax
     direction 0.0167583 0.996049 0.0872067   
     length 1.65931   
     axis 0 0 0   XYZ
    dof rx ry rz
    limits (-20.0 45.0)
           (-30.0 30.0)
           (-30.0 30.0)
  end
  begin
     id 14 
     name lowerneck
     direction -0.0317829 0.998312 0.0486079   
     length 1.79021   
     axis 0 0 0   XYZ
    dof rx ry rz
    limits (-20.0 45.0)
           (-30.0 30.0)
           (-30.0 30.0)
  end
  begin
     id 15 
     name upperneck
     direction 0.0896851 0.972452 -0.215159   
     length 1.78797   
     axis 0 0 0   XYZ
    dof rx ry rz
    limits (-20.0 45.0)
           (-30.0 30.0)
           (-30.0 30.0)
  end
  begin
     id 16
     name head
     direction 0.0310949 0.996503 -0.0775582  
     length 1.81549  
     axis 0 0 0   XYZ
    dof rx ry rz
    limits (-20.0 45.0)
           (-30.0 30.0)
           (-30.0 30.0)
  end
  begin
     id 17 
     name lclavicle
     direction 0.853638 0.502051 -0.138733  
     length 3.31627  
     axis 0 0 0   XYZ
    dof ry rz
    limits (-20.0 10.0)
           (0.0 20.0)
  end
  begin
     id 18 
     name lhumerus
     direction 1 -4.48962e-011 -1.41788e-018   
     length 5.54893   
     axis 180 -30 -90   XYZ
    dof rx ry rz
    limits (-60.0 90.0)
           (-90.0 90.0)
           (-90.0 90.0)
  end
  begin
     id 19
     name lradius
     direction 1 -4.48962e-011 -4.95754e-027   
     length 3.02898   
     axis 180 -30 -90   XYZ
    dof rx
    limits (-10.0 170.0)
  end
  begin
     id 20
     name lwrist
     direction 1 -4.48952e-011 -1.03764e-026   
     length 1.51449   
     axis 9.09556e-015 90 90   XYZ
    dof ry
    limits (-180.0 0.0)
 end
  begin
     id 21 
     name lhand
     direction 1 -4.4902e-011 -2.07528e-026   
     length 0.640951   
     axis 1.3242e-014 90 90   XYZ
    dof rx rz
    limits (-90.0 90.0)
           (-45.0 45.0)
  end
  begin
     id 22 
     name lfingers
     direction 1 -4.49014e-011 -4.15056e-026   
     length 0.516751   
     axis 2.64841e-014 90 90   XYZ
    dof rx
    limits (0.0 90.0)
  end
  begin
     id 23
     name lthumb
     direction 0.707107 -6.35008e-011 0.707107   
     length 0.741954   
     axis -90 45 2.85299e-015   XYZ
    dof rx rz
    limits (-45.0 45.0)
           (-45.0 45.0)
  end
  begin
     id 24 
     name rclavicle
     direction -0.888531 0.455324 -0.0565039   
     length 3.20126  
     axis 0 0 0   XYZ 
    dof ry rz
    limits (-10.0 20.0)
           (-20.0 0.0)
  end
  begin
     id 25 
     name rhumerus
     direction -1 -4.48946e-011 -8.98298e-028  
     length 5.3519   
     axis 180 30 90   XYZ
    dof rx ry rz
    limits (-90.0 60.0)
           (-90.0 90.0)
           (-90.0 90.0)
  end
  begin
     id 26 
     name rradius
     direction -1 -4.4899e-011 -3.18779e-027   
     length 3.02531   
     axis 180 30 90   XYZ
    dof rx
    limits (-10.0 170.0)
  end
  begin
     id 27 
     name rwrist
     direction -1 -4.4897e-011 -1.03764e-026   
     length 1.51266   
     axis 9.09556e-015 -90 -90   XYZ
    dof ry
    limits (-180.0 0.0)
  end
  begin
     id 28
     name rhand
     direction -1 -4.48941e-011 -2.07528e-026   
     length 0.78389   
     axis 1.3242e-014 -90 -90   XYZ
    dof rx rz
    limits (-90.0 90.0)
           (-45.0 45.0)
  end
  begin
     id 29
     name rfingers
     direction -1 -4.49012e-011 -4.15056e-026   
     length 0.631992   
     axis 2.64841e-014 -90 -90   XYZ
    dof rx
    limits (0.0 90.0)
  end
  begin
     id 30
     name rthumb
     direction -0.707107 -6.3496e-011 0.707107   
     length 0.907418   
     axis -90 -45 -2.85299e-015   XYZ
    dof rx rz
    limits (-45.0 45.0)
           (-45.0 45.0)
  end
:hierarchy
  begin
    root lhipjoint rhipjoint lowerback
    lhipjoint lfemur
    lfemur ltibia
    ltibia lfoot
    lfoot ltoes
    rhipjoint rfemur
    rfemur rtibia
    rtibia rfoot
    rfoot rtoes
    lowerback upperback
    upperback thorax
    thorax lowerneck lclavicle rclavicle
    lowerneck upperneck
    upperneck head
    lclavicle lhumerus
    lhumerus lradius
    lradius lwrist
    lwrist lhand lthumb
    lhand lfingers
    rclavicle rhumerus
    rhumerus rradius
    rradius rwrist
    rwrist rhand rthumb
    rhand rfingers
  end

#!OML:ASF E:\Style3\Style3.ASF
:FULLY-SPECIFIED
:DEGREES
1125
root -1.09719 17.8523 0.407944 6.70934 97.675 -5.2582
lowerback -0.218928 1.4946 2.14999
upperback -9.44774 2.6191 1.11879
thorax -9.83173 1.32983 -0.254668
lowerneck -6.93416 11.5172 -1.86687
upperneck 2.40652 15.4439 1.71559
head 1.61966 7.73042 1.33617
rclavicle 2.46493e-014 2.06736e-014
rhumerus -5.27381 49.5597 -62.8908
rradius 131.948
rwrist -7.23719
rhand 10.1287 19.1366
rfingers 7.12502
rthumb 35.2484 -7.36108
lclavicle 2.46493e-014 2.06736e-014
lhumerus -12.7683 -43.1695 73.9545
lradius 134.97
lwrist 16.9361
lhand 25.612 34.639
lfingers 7.12502
lthumb 49.7224 56.0062
rfemur -15.7438 8.6379 14.8974
rtibia 17.0043
rfoot -12.5495 -21.614
rtoes -13.6444
lfemur -8.87548 -19.0187 -14.0606
ltibia 1.82882e-014
lfoot -1.83432 20.6389
ltoes -24.4698
1126
root -1.10064 17.8496 0.419985 4.85589 97.613 -7.16783
lowerback -0.354803 1.48337 1.88556
upperback -9.40144 2.56726 0.969733
thorax -9.70092 1.31854 -0.255598
lowerneck -7.01944 11.3903 -2.07838
upperneck 2.54668 15.2769 2.13906
head 1.63407 7.6553 1.50153
rclavicle -6.1822e-014 -3.4191e-014
rhumerus -5.03651 49.3733 -62.7636
rradius 131.874
rwrist -7.02164
rhand 9.92195 19.3172
rfingers 7.12502
rthumb 35.0523 -7.22667
lclavicle -6.1822e-014 -3.4191e-014
lhumerus -12.5346 -43.3474 73.7792
lradius 134.923
lwrist 17.0551
lhand 25.6128 34.4689
lfingers 7.12502
lthumb 49.7232 55.8358
rfemur -16.0668 8.57561 14.637
rtibia 17.4415
rfoot -12.8182 -21.409
rtoes -12.7148
lfemur -8.91616 -18.9765 -14.2939
ltibia -2.38542e-014
lfoot -1.80132 20.609
ltoes -24.2072
1127
root -1.10384 17.8471 0.431078 3.94296 97.5359 -8.10339
lowerback -0.49196 1.43733 1.76271
upperback -9.32444 2.47657 0.854506
thorax -9.53231 1.27769 -0.295565
lowerneck -7.11365 11.1172 -2.28498
upperneck 2.66336 14.9143 2.5901
head 1.64766 7.48409 1.67126
rclavicle -2.54444e-014 -1.74931e-014
rhumerus -4.64273 49.1569 -62.6252
rradius 131.822
rwrist -6.96673
rhand 10.0343 19.3513
rfingers 7.12502
rthumb 35.1588 -7.16754
lclavicle -2.54444e-014 -1.74931e-014
lhumerus -12.3511 -43.4288 73.5328
lradius 134.884
lwrist 17.0087
lhand 25.479 34.1672
lfingers 7.12502
lthumb 49.6005 55.5971
rfemur -16.2945 8.61677 14.526
rtibia 17.7589
rfoot -12.9917 -21.32
rtoes -12.1999
lfemur -8.92657 -18.9019 -14.3893
ltibia -1.43125e-014
lfoot -1.79554 20.5745
ltoes -23.7442
1128
root -1.10537 17.8464 0.442925 3.62757 97.3922 -8.46426
lowerback -0.504518 1.33272 1.59471
upperback -9.35101 2.32308 0.805994
thorax -9.55996 1.21295 -0.241842
lowerneck -7.01158 10.7763 -2.30036
upperneck 2.7232 14.4462 2.92917
head 1.63652 7.25902 1.76123
rclavicle 1.27222e-014 7.95139e-016
rhumerus -4.32758 49.17 -62.6244
rradius 131.803
rwrist -6.99155
rhand 10.0748 19.2357
rfingers 7.12502
rthumb 35.1973 -7.27409
lclavicle 1.27222e-014 7.95139e-016
lhumerus -12.4467 -43.4438 73.38
lradius 134.909
lwrist 16.8865
lhand 25.1022 33.872
lfingers 7.12502
lthumb 49.255 55.4773
rfemur -16.4833 8.69639 14.5015
rtibia 17.9288
rfoot -13.0323 -21.2356
rtoes -12.3038
lfemur -8.9545 -18.7496 -14.3951
ltibia -1.59028e-014
lfoot -1.75001 20.5205
ltoes -23.7549
1129
root -1.1082 17.8457 0.4525 3.3664 97.2272 -8.78815
lowerback -0.45915 1.17856 1.4218
upperback -9.43241 2.11239 0.805692
thorax -9.68605 1.12341 -0.132662
lowerneck -6.81562 10.3761 -2.41993
upperneck 2.76096 13.9053 3.32535
head 1.59467 6.99787 1.87641
rclavicle 1.17283e-014 1.59028e-015
rhumerus -3.984 49.3747 -62.6137
rradius 131.791
rwrist -6.96301
rhand 9.98568 19.0323
rfingers 7.12502
rthumb 35.1128 -7.49731
lclavicle 1.17283e-014 1.59028e-015
lhumerus -12.7158 -43.23 73.4063
lradius 134.912
lwrist 16.6161
lhand 25.032 33.5492
lfingers 7.12502
lthumb 49.1905 55.1868
rfemur -16.6157 8.77065 14.4806
rtibia 17.9491
rfoot -12.8775 -21.1669
rtoes -12.7922
lfemur -9.0121 -18.576 -14.4002
ltibia -2.54444e-014
lfoot -1.60464 20.4563
ltoes -23.8026
1130
root -1.1102 17.8467 0.459708 3.55981 97.0356 -8.61852
lowerback -0.507318 1.02401 1.46004
upperback -9.41761 1.8997 0.793949
thorax -9.64091 1.01426 -0.148026
lowerneck -6.71932 9.83403 -2.72988
upperneck 2.71259 13.1917 3.82799
head 1.53215 6.65219 2.05629
rclavicle 2.76311e-014 -1.03368e-014
rhumerus -3.48486 49.4687 -62.4858
rradius 131.757
rwrist -6.97852
rhand 10.0321 18.9176
rfingers 7.12502
rthumb 35.1568 -7.60169
lclavicle 2.76311e-014 -1.03368e-014
lhumerus -12.9517 -43.0265 73.3781
lradius 134.986
lwrist 16.4872
lhand 25.0677 33.2827
lfingers 7.12502
lthumb 49.2233 54.9039
rfemur -16.6494 8.82886 14.5368
rtibia 17.8718
rfoot -12.7695 -21.0467
rtoes -12.826
lfemur -9.00045 -18.3785 -14.37
ltibia -2.06736e-014
lfoot -1.45665 20.3554
ltoes -23.9081
1131
root -1.10926 17.8503 0.464105 4.47017 96.7242 -7.76069
lowerback -0.610862 0.896057 1.62965
upperback -9.41465 1.73023 0.78673
thorax -9.57332 0.916798 -0.234383
lowerneck -6.69486 9.13805 -3.07897
upperneck 2.7276 12.2741 4.41544
head 1.51024 6.20681 2.27841
rclavicle -1.49089e-015 -9.54166e-015
rhumerus -3.05559 49.5344 -62.4557
rradius 131.728
rwrist -6.9397
rhand 10.17 18.841
rfingers 7.12502
rthumb 35.2875 -7.64741
lclavicle -1.49089e-015 -9.54166e-015
lhumerus -13.2072 -42.8683 73.361
lradius 135.088
lwrist 16.5791
lhand 25.0702 33.3418
lfingers 7.12502
lthumb 49.2256 54.9618
rfemur -16.7116 8.90898 14.6648
rtibia 17.7387
rfoot -12.5593 -20.8406
rtoes -12.8598
lfemur -8.96898 -18.0541 -14.2658
ltibia -1.11319e-014
lfoot -1.44745 20.3018
ltoes -23.8231
1132
root -1.10975 17.8529 0.468782 5.79661 96.3368 -6.52246
lowerback -0.589408 0.727901 1.65134
upperback -9.50298 1.5203 0.903693
thorax -9.69141 0.818273 -0.108085
lowerneck -6.6343 8.38121 -3.41865
upperneck 2.87658 11.2712 4.95311
head 1.5423 5.71708 2.49109
rclavicle -2.59414e-014 -2.18663e-014
rhumerus -2.62249 49.7944 -62.3587
rradius 131.696
rwrist -6.89166
rhand 10.2165 18.8231
rfingers 7.12502
rthumb 35.3316 -7.65483
lclavicle -2.59414e-014 -2.18663e-014
lhumerus -13.7057 -42.5665 73.5561
lradius 135.196
lwrist 16.6414
lhand 24.9742 33.4167
lfingers 7.12502
lthumb 49.1375 55.0808
rfemur -16.8102 9.00867 14.828
rtibia 17.5642
rfoot -12.348 -20.6148
rtoes -12.9395
lfemur -8.95803 -17.6434 -14.1179
ltibia 1.35174e-014
lfoot -1.47052 20.2324
ltoes -23.6692
1133
root -1.11059 17.8552 0.473595 7.2716 95.9339 -5.11205
lowerback -0.543952 0.566085 1.62779
upperback -9.53625 1.31152 1.02243
thorax -9.76193 0.722845 0.0462917
lowerneck -6.68482 7.49147 -3.74626
upperneck 2.95112 10.0948 5.47013
head 1.59042 5.14189 2.70035
rclavicle -8.94531e-016 2.70347e-014
rhumerus -2.13223 49.9345 -62.2076
rradius 131.639
rwrist -6.84091
rhand 10.3576 18.8831
rfingers 7.12502
rthumb 35.4654 -7.56302
lclavicle -8.94531e-016 2.70347e-014
lhumerus -14.094 -42.3631 73.7335
lradius 135.311
lwrist 16.8235
lhand 24.7631 33.5592
lfingers 7.12502
lthumb 48.9435 55.3195
rfemur -16.8848 9.09657 15.0053
rtibia 17.392
rfoot -12.1074 -20.3651
rtoes -13.0122
lfemur -8.92078 -17.2147 -13.9738
ltibia 1.74931e-014
lfoot -1.55046 20.1746
ltoes -23.4216
1134
root -1.11236 17.8577 0.477999 8.26397 95.4974 -4.14234
lowerback -0.531021 0.38963 1.60708
upperback -9.47755 1.06852 1.09296
thorax -9.70736 0.60583 0.15249
lowerneck -6.74058 6.48854 -4.31345
upperneck 2.81193 8.78846 6.22749
head 1.56851 4.50641 3.02474
rclavicle 1.15295e-014 -6.36111e-015
rhumerus -1.44149 49.9172 -61.9969
rradius 131.592
rwrist -6.75681
rhand 10.7556 19.1567
rfingers 7.12502
rthumb 35.8426 -7.19827
lclavicle 1.15295e-014 -6.36111e-015
lhumerus -14.2418 -42.1484 73.7317
lradius 135.308
lwrist 16.894
lhand 24.6698 33.5664
lfingers 7.12502
lthumb 48.8578 55.3688
rfemur -16.9287 9.28779 15.1046
rtibia 17.2567
rfoot -11.975 -20.1447
rtoes -13.0684
lfemur -8.83666 -16.7642 -13.9185
ltibia 7.95139e-016
lfoot -1.69788 20.1711
ltoes -23.2835
1135
root -1.11494 17.8598 0.481197 8.98328 95.0189 -3.48202
lowerback -0.558123 0.179423 1.54728
upperback -9.42905 0.778663 1.17025
thorax -9.64028 0.469685 0.291431
lowerneck -6.55404 5.39778 -4.92109
upperneck 2.49433 7.36935 6.96062
head 1.47107 3.80969 3.33806
rclavicle -5.06901e-015 -2.10712e-014
rhumerus -0.469401 49.9456 -61.5455
rradius 131.514
rwrist -6.87308
rhand 11.0524 19.2294
rfingers 7.12502
rthumb 36.1238 -7.05659
lclavicle -5.06901e-015 -2.10712e-014
lhumerus -14.4848 -41.7678 73.7074
lradius 135.344
lwrist 16.8506
lhand 24.6673 33.4905
lfingers 7.12502
lthumb 48.8555 55.2941
rfemur -17.0708 9.45496 15.1403
rtibia 17.1836
rfoot -11.8353 -19.8617
rtoes -13.1571
lfemur -8.77293 -16.2736 -13.9022
ltibia 7.15625e-015
lfoot -1.99783 20.1258
ltoes -22.6533
1136
root -1.11669 17.8622 0.485485 9.70071 94.4463 -2.81037
lowerback -0.50602 0.00796116 1.43973
upperback -9.4273 0.542193 1.22445
thorax -9.67133 0.362736 0.427527
lowerneck -6.19807 4.18711 -5.24661
upperneck 2.17557 5.7676 7.39564
head 1.39197 3.01292 3.49712
rclavicle 2.38542e-015 -1.35174e-014
rhumerus 0.361221 50.0042 -61.1675
rradius 131.447
rwrist -7.18558
rhand 11.1114 18.9958
rfingers 7.12502
rthumb 36.1797 -7.27637
lclavicle 2.38542e-015 -1.35174e-014
lhumerus -14.7966 -41.4022 73.6924
lradius 135.403
lwrist 16.7878
lhand 24.6455 33.5848
lfingers 7.12502
lthumb 48.8355 55.3982
rfemur -17.2394 9.6617 15.1635
rtibia 17.1687
rfoot -11.5729 -19.6155
rtoes -13.426
lfemur -8.66937 -15.6934 -13.9201
ltibia 8.74653e-015
lfoot -2.28636 20.0611
ltoes -21.9597
1137
root -1.11864 17.8647 0.48985 8.7954 93.8652 -3.7827
lowerback -0.479978 -0.15598 1.17602
upperback -9.42641 0.30366 1.23521
thorax -9.68594 0.265466 0.605262
lowerneck -5.92641 2.85527 -5.80622
upperneck 1.99944 4.00891 8.11466
head 1.39191 2.14345 3.81007
rclavicle 4.17448e-015 0
rhumerus 0.976269 50.1388 -60.9452
rradius 131.442
rwrist -7.43485
rhand 11.1278 18.6563
rfingers 7.12502
rthumb 36.1952 -7.612
lclavicle 4.17448e-015 0
lhumerus -15.081 -41.0691 73.6636
lradius 135.486
lwrist 16.7996
lhand 24.5129 33.5634
lfingers 7.12502
lthumb 48.7136 55.4363
rfemur -17.4604 9.85226 15.0444
rtibia 17.2219
rfoot -11.4388 -19.3781
rtoes -13.7632
lfemur -8.58597 -15.1274 -14.0757
ltibia 4.45278e-014
lfoot -2.46277 20.0135
ltoes -21.4534
1138
root -1.12152 17.8668 0.492094 7.3131 93.3369 -5.30984
lowerback -0.473348 -0.364562 0.933507
upperback -9.3987 0.00428327 1.26043
thorax -9.65645 0.13659 0.791449
lowerneck -5.62142 1.45495 -6.70163
upperneck 1.83412 2.16835 9.13796
head 1.41849 1.23537 4.30357
rclavicle 2.68359e-015 -1.35174e-014
rhumerus 1.59808 50.3219 -60.7258
rradius 131.423
rwrist -7.54679
rhand 11.2423 18.5466
rfingers 7.12502
rthumb 36.3036 -7.69472
lclavicle 2.68359e-015 -1.35174e-014
lhumerus -15.4151 -40.793 73.6725
lradius 135.618
lwrist 17.0062
lhand 24.3747 33.3809
lfingers 7.12502
lthumb 48.5864 55.3154
rfemur -17.6731 9.84816 14.9351
rtibia 17.3204
rfoot -11.4565 -18.9902
rtoes -13.9901
lfemur -8.48522 -14.6177 -14.2485
ltibia 4.77083e-015
lfoot -2.66735 19.9327
ltoes -21.1859
1139
root -1.12448 17.8673 0.495142 4.41301 92.7987 -8.20216
lowerback -0.410362 -0.599956 0.652202
upperback -9.35094 -0.335379 1.28411
thorax -9.63459 -0.0102678 1.00118
lowerneck -5.18176 0.0819478 -7.21076
upperneck 1.65558 0.327555 10.0781
head 1.30893 0.33279 4.21666
rclavicle 1.44119e-015 -1.23246e-014
rhumerus 2.30988 50.5188 -60.445
rradius 131.416
rwrist -7.78419
rhand 11.3889 18.3871
rfingers 7.12502
rthumb 36.4424 -7.81949
lclavicle 1.44119e-015 -1.23246e-014
lhumerus -15.7999 -40.4336 73.7345
lradius 135.715
lwrist 17.2024
lhand 24.312 33.2954
lfingers 7.12502
lthumb 48.5288 55.2577
rfemur -17.8443 9.83484 14.803
rtibia 17.4543
rfoot -11.4218 -18.6009
rtoes -14.3558
lfemur -8.3255 -14.1034 -14.4739
ltibia 1.98785e-014
lfoot -2.90876 19.8605
ltoes -20.7907
